<svg width="70" height="80" viewBox="0 0 70 80" fill="none" xmlns="http://www.w3.org/2000/svg">
<path fill-rule="evenodd" clip-rule="evenodd" d="M0 59.8492L34.7415 80L69.6697 60.1585L69.8485 20.1585L35.107 0L0.17884 19.8492L0 59.8492ZM34.7571 77.3246L2.34047 58.5192L2.51153 21.1947L35.0914 2.67543L67.5158 21.4808L67.3448 58.8053L34.7571 77.3246ZM18.5994 30.4659V30.5046C18.5994 33.845 21.142 36.4817 24.5555 36.474C26.7405 36.474 28.0779 35.6776 29.2986 34.4172L27.9768 33.0872C26.9737 34.0228 26.0562 34.6028 24.6177 34.6028C22.3783 34.6028 20.761 32.7392 20.761 30.4659V30.435C20.761 28.1539 22.3783 26.329 24.6177 26.329C25.9551 26.329 26.9582 26.909 27.8913 27.775L29.2131 26.2595C28.0934 25.2001 26.7871 24.4501 24.6333 24.4501C21.0876 24.4501 18.5994 27.1564 18.5994 30.4659ZM40.0912 49.8666V49.8357C40.0912 46.5262 42.5794 43.8199 46.1251 43.8199C48.2789 43.8199 49.5852 44.5699 50.7049 45.6293L49.3831 47.1448C48.45 46.2788 47.4469 45.6988 46.1095 45.6988C43.8701 45.6988 42.2528 47.5237 42.2528 49.8048V49.8357C42.2528 52.109 43.8701 53.9726 46.1095 53.9726C47.548 53.9726 48.4655 53.3926 49.4686 52.457L50.7905 53.787C49.5697 55.0474 48.2323 55.8438 46.0473 55.8438C42.6338 55.8438 40.0912 53.1993 40.0912 49.8666ZM51.1948 23.5299L47.7891 24.7671L47.6927 26.6468C47.5856 26.64 47.4766 26.6784 47.3925 26.762L21.5415 52.4695L19.0659 52.372C18.8481 52.3797 18.6693 52.5266 18.6615 52.7432C18.6538 52.9597 18.817 53.1375 19.0348 53.1452L21.4608 53.2458L21.5541 55.6583C21.5619 55.8671 21.7329 56.0294 21.9429 56.0294C21.9507 56.0294 21.9507 56.0294 21.9584 56.0217C22.1761 56.014 22.3394 55.8361 22.3317 55.6196L22.2229 52.8899L47.9446 27.311C48.0268 27.2292 48.0656 27.1236 48.0608 27.0194L49.9585 26.9167L51.1948 23.5299ZM19.9834 57.2202C19.9912 57.429 20.1623 57.5914 20.3722 57.5914H20.3878C20.6055 57.5836 20.7688 57.4058 20.761 57.1893L20.6366 54.0654L17.4953 53.9417C17.2931 53.9339 17.0987 54.104 17.0909 54.3128C17.0831 54.5293 17.2464 54.7072 17.4641 54.7149L19.8901 54.8077L19.9834 57.2202ZM18.8015 59.1533C18.5916 59.1533 18.4205 58.9909 18.4127 58.7821L18.3116 56.3696L15.8857 56.2768C15.668 56.2691 15.5047 56.0912 15.5124 55.8747C15.5202 55.6582 15.6991 55.5113 15.9168 55.5036L19.0581 55.6273L19.1825 58.7512C19.1903 58.9677 19.027 59.1455 18.8093 59.1533H18.8015Z" fill="white"/>
</svg>
